<?xml version="1.0" encoding="utf-8"?>
<!-- Generator: Adobe Illustrator 19.1.0, SVG Export Plug-In . SVG Version: 6.00 Build 0)  -->
<svg version="1.1" id="Layer_1" xmlns="http://www.w3.org/2000/svg" xmlns:xlink="http://www.w3.org/1999/xlink" x="0px" y="0px"
	 viewBox="-487 451 48 60" style="enable-background:new -487 451 48 60;" xml:space="preserve">
<path d="M-463,457c-13.3,0-24,10.7-24,24s10.7,24,24,24s24-10.7,24-24S-449.7,457-463,457z M-451.2,477.4l-12.8,12.8
	c-1.6,1.6-4,1.6-5.5,0.2c-0.2-0.2-0.4-0.4-0.5-0.7l-5.2-5.2c-1.6-1.6-1.6-4-0.2-5.5c1.5-1.5,3.9-1.4,5.5,0.2l3.2,3.2l10.3-10.3
	c1.6-1.6,4-1.6,5.5-0.2C-449.6,473.4-449.6,475.9-451.2,477.4z"/>
</svg>
