<?xml version="1.0" encoding="utf-8"?>
<!-- Generator: Adobe Illustrator 19.1.0, SVG Export Plug-In . SVG Version: 6.00 Build 0)  -->
<svg version="1.1" id="Layer_1" xmlns="http://www.w3.org/2000/svg" xmlns:xlink="http://www.w3.org/1999/xlink" x="0px" y="0px"
	 viewBox="-461 418 100 125" style="enable-background:new -461 418 100 125;" xml:space="preserve">
<g>
	<path d="M-418.8,474.1c-0.8,0.8-1.5,1.8-1.9,2.8l-6.8,15.1c-1.1,2.8,1.2,5.1,3.9,3.9l15.1-6.7c1-0.5,2-1.1,2.8-1.9l37-36.3
		c3.7-3.7,3.7-9.6,0-13.2c-3.7-3.7-9.6-3.7-13.2,0L-418.8,474.1z"/>
	<path d="M-377.4,485.5c-3.1,0-5.6,2.5-5.6,5.6v17.2c0,3.1-2.5,5.6-5.6,5.6h-50.7c-3.1,0-5.6-2.5-5.6-5.6v-50.8
		c0-3.1,2.5-5.6,5.6-5.6h16.5c3.1,0,5.6-2.5,5.6-5.6c0-3.1-2.5-5.6-5.6-5.6h-16.5c-9.2,0.1-16.7,7.6-16.7,16.8v50.8
		c0,9.2,7.5,16.7,16.7,16.7h50.8c9.2,0,16.7-7.5,16.7-16.7v-17.2C-371.8,488-374.3,485.5-377.4,485.5z"/>
</g>
</svg>
