<?xml version="1.0" encoding="utf-8"?>
<!-- Generator: Adobe Illustrator 19.1.0, SVG Export Plug-In . SVG Version: 6.00 Build 0)  -->
<svg version="1.1" id="Layer_1" xmlns="http://www.w3.org/2000/svg" xmlns:xlink="http://www.w3.org/1999/xlink" x="0px" y="0px"
	 viewBox="-669 118 100 101.8" style="enable-background:new -669 118 100 101.8;" xml:space="preserve">
<g>
	<path d="M-648.2,206.4c0,3.7,3,6.6,6.7,6.6h45.1c3.7,0,6.7-2.9,6.7-6.6l2.6-54.4h-63.6L-648.2,206.4z M-607,162.9
		c0-1.9,1.1-3.4,3-3.4s3,1.5,3,3.4v37.6c0,1.9-1.1,3.4-3,3.4s-3-1.5-3-3.4V162.9z M-622,162.9c0-1.9,1.1-3.4,3-3.4s3,1.5,3,3.4v37.6
		c0,1.9-1.1,3.4-3,3.4s-3-1.5-3-3.4V162.9z M-637,162.9c0-1.9,1.1-3.4,3-3.4s3,1.5,3,3.4v37.6c0,1.9-1.1,3.4-3,3.4s-3-1.5-3-3.4
		V162.9z"/>
	<path d="M-585.9,135H-604v-8.9c0-1.8-0.9-3.1-2.8-3.1H-631c-1.9,0-3,1.3-3,3.1v8.9h-17.9c-1.9,0-3.1,1.4-3.1,3.3v3.8
		c0,1.9,1.2,3.9,3.1,3.9h66.1c1.9,0,2.9-2.1,2.9-3.9v-3.8C-583,136.4-584,135-585.9,135z M-610,135h-18v-6h18V135z"/>
</g>
</svg>
