<svg xmlns="http://www.w3.org/2000/svg" xmlns:xlink="http://www.w3.org/1999/xlink" version="1.1" x="0px" y="0px" viewBox="0 0 100 125" enable-background="new 0 0 100 100" xml:space="preserve"><g><path d="M42.2,44.1c-0.8,0.8-1.5,1.8-1.9,2.8L33.5,62c-1.1,2.8,1.2,5.1,3.9,3.9l15.1-6.7c1-0.5,2-1.1,2.8-1.9L92.3,21   c3.7-3.7,3.7-9.6,0-13.2c-3.7-3.7-9.6-3.7-13.2,0L42.2,44.1z"/><path d="M83.6,55.5c-3.1,0-5.6,2.5-5.6,5.6v17.2c0,3.1-2.5,5.6-5.6,5.6H21.7c-3.1,0-5.6-2.5-5.6-5.6V27.5c0-3.1,2.5-5.6,5.6-5.6   h16.5c3.1,0,5.6-2.5,5.6-5.6s-2.5-5.6-5.6-5.6H21.7C12.5,10.8,5,18.3,5,27.5v50.8C5,87.5,12.5,95,21.7,95h50.8   c9.2,0,16.7-7.5,16.7-16.7V61.1C89.2,58,86.7,55.5,83.6,55.5z"/></g><text x="0" y="115" fill="#000000" font-size="5px" font-weight="bold" font-family="'Helvetica Neue', Helvetica, Arial-Unicode, Arial, Sans-serif">Created by Shaun Moynihan</text><text x="0" y="120" fill="#000000" font-size="5px" font-weight="bold" font-family="'Helvetica Neue', Helvetica, Arial-Unicode, Arial, Sans-serif">from the Noun Project</text></svg>