<?xml version="1.0" encoding="utf-8"?>
<!-- Generator: Adobe Illustrator 19.1.0, SVG Export Plug-In . SVG Version: 6.00 Build 0)  -->
<svg version="1.1" id="Layer_1" xmlns="http://www.w3.org/2000/svg" xmlns:xlink="http://www.w3.org/1999/xlink" x="0px" y="0px"
	 viewBox="-487 451 48 60" style="enable-background:new -487 451 48 60;" xml:space="preserve">
<path d="M-463,456.4c-13.3,0-24,10.7-24,24s10.7,24,24,24s24-10.7,24-24S-449.7,456.4-463,456.4z M-453.9,484.1h-5.3v5.3
	c0,2.2-1.7,4-3.8,4s-3.8-1.8-3.8-4v-5.3h-5.3c-2.2,0-4-1.7-4-3.8s1.8-3.8,4-3.8h5.3v-5.3c0-2.2,1.7-4,3.8-4s3.8,1.8,3.8,4v5.3h5.3
	c2.2,0,4,1.7,4,3.8C-449.9,482.4-451.7,484.1-453.9,484.1z"/>
</svg>
